<svg width="244" height="103" viewBox="0 0 244 103" fill="none" xmlns="http://www.w3.org/2000/svg">
<path d="M134.021 9.184L121.093 44H113.029L126.405 8.032C128.069 3.104 130.821 0.0319977 136.581 0.0319977C142.981 0.0319977 146.181 3.808 146.181 9.44V34.976C146.181 36.448 147.076 37.408 148.357 37.408C149.509 37.408 150.405 36.704 150.789 35.616L161.285 8.032C162.949 3.104 165.701 0.0319977 171.461 0.0319977C177.861 0.0319977 181.061 3.808 181.061 9.44V44H173.445V9.824C173.445 8.288 172.549 7.328 171.269 7.328C170.181 7.328 169.285 8.096 168.901 9.184L158.405 36.768C156.741 41.696 153.925 44.768 148.165 44.768C141.829 44.768 138.629 40.992 138.629 35.296V9.824C138.629 8.288 137.669 7.328 136.389 7.328C135.237 7.328 134.469 8.096 134.021 9.184ZM188.106 0.799999H215.178C223.242 0.799999 225.61 5.408 225.61 9.632C225.61 12.512 224.522 15.328 222.026 18.784L203.466 44H193.994L216.266 13.856C217.034 12.832 217.354 11.936 217.354 11.04C217.354 9.696 216.65 8.352 214.282 8.352H188.106V0.799999ZM4.3945 59.8H19.6265C32.2345 59.8 39.0825 66.84 39.0825 81.432C39.0825 95.96 32.2985 103 19.6265 103H4.3945C1.9625 103 0.8105 101.848 0.8105 99.48V63.32C0.8105 60.952 1.9625 59.8 4.3945 59.8ZM8.3625 68.12V94.68C8.3625 95.256 8.6185 95.448 9.1945 95.448H19.6265C28.0105 95.448 31.5305 91.288 31.5305 81.368C31.5305 71.512 28.0105 67.352 19.6265 67.352H9.1945C8.6185 67.352 8.3625 67.544 8.3625 68.12ZM47.998 59.8H55.55V103H47.998V59.8ZM83.918 59.8H101.71V67.352H83.918C75.598 67.352 71.95 71.512 71.95 81.432C71.95 91.288 75.534 95.448 83.918 95.448H91.086C95.31 95.448 97.102 92.888 97.102 89.368C97.102 85.912 95.31 83.864 91.79 83.864H82.19V77.272H92.558C100.238 77.272 104.014 82.008 104.014 89.496C104.014 97.048 100.238 103 90.574 103H83.918C71.31 103 64.398 95.896 64.398 81.432C64.398 66.904 71.374 59.8 83.918 59.8ZM112.623 59.8H120.175V103H112.623V59.8ZM127.231 59.8H160.063V67.352H147.455V103H139.839V67.352H127.231V59.8ZM180.732 68.248L167.036 103H158.716L173.884 64.6C175.484 60.568 178.428 59.032 182.972 59.032C187.452 59.032 190.396 60.568 191.932 64.6L206.524 103H198.14L185.02 68.248C184.636 67.224 183.932 66.776 182.908 66.776C181.884 66.776 181.18 67.224 180.732 68.248ZM209.988 59.8H217.54V88.024C217.54 92.184 219.588 95.448 226.372 95.448H243.14V103H225.924C214.468 103 209.988 96.728 209.988 88.088V59.8Z" fill="#F8E9EB"/>
</svg>
