<?xml version="1.0" encoding="UTF-8"?>
<svg id="Layer_2" data-name="Layer 2" xmlns="http://www.w3.org/2000/svg" viewBox="0 0 40 11.4">
  <defs>
    <style>
      .cls-1 {
        fill: #f2f2f2;
      }
    </style>
  </defs>
  <g id="Layer_1-2" data-name="Layer 1">
    <g id="qQGyX2.tif">
      <path class="cls-1" d="m8.53,5.67c-.42-.04-.88.04-1.3.25-.32.16-.6.36-.82.65-.11.14-.25.25-.35.4-.11.17-.17.37-.25.56-.17.41-.12.85-.15,1.28-.04.65-.32,1.19-.76,1.66-.25.26-.53.48-.86.64-.41.2-.85.28-1.3.26-1.13-.05-1.96-.57-2.45-1.59-.23-.48-.33-1-.27-1.53.11-.92.54-1.65,1.35-2.15.47-.29.99-.38,1.54-.39.45,0,.89-.09,1.3-.33.37-.21.7-.44.94-.77.22-.3.44-.62.48-1.02,0-.03,0-.07.02-.09.15-.15.07-.32.08-.5,0-.54.07-1.08.34-1.55.45-.77,1.1-1.3,2.02-1.43.33-.05.65-.08.97,0,.46.13.93.23,1.3.57.37.34.68.73.87,1.21.14.37.17.75.18,1.13.02.46.1.92.36,1.33.35.56.83.96,1.44,1.22.56.24,1.14.23,1.72.14.65-.1,1.19-.42,1.61-.9.42-.49.71-1.06.69-1.74-.01-.32.02-.64.11-.95.15-.53.42-.98.83-1.35C18.72.21,19.39-.01,20.14,0c.76.02,1.43.29,1.98.85.59.6.82,1.33.8,2.15-.02,1.02.49,1.75,1.3,2.28.58.38,1.22.47,1.91.4.83-.08,1.44-.52,1.92-1.15.26-.34.43-.72.46-1.16.03-.33.05-.66.09-.99.05-.39.21-.73.4-1.07.2-.37.49-.65.84-.86.79-.48,1.63-.59,2.52-.27.29.11.58.21.81.41.46.41.85.89.99,1.51.06.3.06.61.08.91.03.58.17,1.12.54,1.57.33.4.73.7,1.21.92.45.21.93.18,1.4.22.56.05,1.08.21,1.51.57.4.34.74.73.91,1.25.12.37.21.75.17,1.13-.06.65-.24,1.24-.71,1.73-.4.41-.83.74-1.38.88-.51.13-1.03.14-1.55-.01-.59-.17-1.06-.5-1.43-.97-.18-.23-.31-.52-.42-.79-.14-.34-.18-.71-.18-1.09,0-.52-.15-.98-.41-1.42-.26-.44-.61-.78-1.04-1.03-.36-.21-.76-.34-1.19-.33-.19,0-.38,0-.57,0-.59.03-1.13.19-1.57.62-.24.24-.47.48-.67.75-.22.31-.3.66-.26,1.06.04.35.02.72-.03,1.07-.12.74-.57,1.3-1.16,1.73-.36.26-.77.42-1.22.46-.53.05-1.06.05-1.56-.16-.44-.18-.81-.44-1.12-.8-.29-.34-.47-.73-.59-1.14-.1-.37-.14-.75-.06-1.13.08-.34-.03-.64-.18-.93-.25-.5-.62-.91-1.1-1.19-.26-.15-.57-.27-.87-.32-.48-.09-.97-.07-1.45.03-.69.14-1.18.57-1.61,1.1-.37.47-.49,1-.49,1.58,0,.62-.12,1.22-.5,1.72-.28.37-.59.71-1.03.94-.76.39-1.52.4-2.3.15-.46-.14-.81-.44-1.14-.78-.32-.33-.51-.73-.62-1.17-.08-.33-.07-.66-.1-.99-.03-.27-.11-.54-.19-.81-.14-.45-.41-.83-.76-1.14-.26-.22-.55-.42-.88-.54-.35-.13-.7-.15-1.11-.14Z"/>
    </g>
  </g>
</svg>